<svg xmlns="http://www.w3.org/2000/svg" width="400" height="400">
  <path d="M186.087 48.371l-12.554 12.553-71.522 175.114 117.943-162.56 16.445-13.146z" fill="#000" />
  <path
    d="M64.67 60.924h108.862v11.584H64.67zM102.011 236.038l1.301 1.301L219.954 73.478M62.589 287.324l13.738 46.211 8.742-5.464-1.337-7.826s78.824-22.304 148.138-65.313L62.589 287.324zM335.858 73.301h.003c-6.612-20.534-53.558-35.149-53.558-35.149l-2.498 2.312s22.874 16.429 24.222 38.28c-.005.169-.014.338-.014.508 0 .5.028.995.079 1.484v.014c.806 7.858 7.874 14.004 16.478 14.004 9.142 0 16.555-6.94 16.555-15.502a14.6 14.6 0 00-1.267-5.951zM297.123 134.175v204.148l36.9-15.014V151.504l7.911-7.493-7.911-4.735z"
    fill="#000" />
</svg>
